<?xml version="1.0" standalone="no"?>
<!DOCTYPE svg PUBLIC "-//W3C//DTD SVG 20010904//EN"
 "http://www.w3.org/TR/2001/REC-SVG-20010904/DTD/svg10.dtd">
<svg version="1.0" xmlns="http://www.w3.org/2000/svg"
 width="300.000000pt" height="300.000000pt" viewBox="0 0 300.000000 300.000000"
 preserveAspectRatio="xMidYMid meet">
<metadata>
Created by potrace 1.10, written by Peter Selinger 2001-2011
</metadata>
<g transform="translate(0.000000,300.000000) scale(0.100000,-0.100000)"
fill="#000000" stroke="none">
<path d="M1450 2709 c-48 -26 -86 -63 -102 -99 -11 -26 -17 -30 -40 -25 -14 4
-137 7 -271 8 -267 1 -291 -3 -302 -52 -8 -38 8 -84 33 -97 12 -6 20 -13 18
-15 -3 -2 78 -3 178 -1 158 3 185 1 199 -13 14 -13 16 -44 16 -210 -1 -162 -3
-193 -15 -188 -8 3 -14 11 -14 17 0 7 -18 38 -40 70 -22 31 -40 62 -41 69 0 7
-29 37 -63 68 -93 84 -146 101 -332 107 -149 4 -150 4 -180 -21 l-29 -25 -1
-319 c-1 -175 -2 -339 -3 -365 l-1 -48 -36 35 c-19 19 -53 40 -75 46 -45 14
-49 25 -15 40 46 21 51 47 49 256 -2 216 -7 236 -64 248 -39 9 -74 -9 -89 -45
-7 -18 -10 -94 -8 -224 l3 -198 27 -23 c37 -32 35 -41 -10 -49 -44 -7 -94 -51
-124 -110 -16 -31 -19 -52 -15 -94 9 -90 74 -154 167 -167 56 -8 100 8 153 55
36 31 37 32 37 9 -1 -13 1 -174 4 -358 l4 -334 23 -18 c21 -16 44 -19 164 -19
236 0 332 44 418 191 43 73 47 119 48 475 0 184 1 334 4 334 2 0 14 -17 26
-37 13 -21 39 -63 58 -93 20 -30 36 -58 36 -61 0 -3 8 -13 18 -23 9 -10 17
-24 17 -32 0 -11 -5 -10 -22 6 -25 23 -48 26 -66 8 -9 -9 -12 -117 -12 -424 0
-319 -3 -415 -12 -421 -7 -4 -97 -8 -200 -9 l-186 -1 -26 -26 c-37 -37 -34
-76 6 -117 30 -29 37 -31 78 -25 25 3 138 6 253 5 130 0 215 3 227 10 17 9 22
7 29 -13 16 -40 70 -86 120 -101 72 -21 129 -6 182 49 23 24 47 51 52 60 6 11
12 13 20 7 7 -6 129 -12 278 -14 l266 -3 26 30 c29 33 32 50 17 89 -18 47 -53
56 -206 50 -77 -3 -160 -2 -186 2 l-48 6 -1 416 c0 382 -6 485 -23 442 -3 -8
-7 -212 -8 -453 l-3 -437 211 0 c192 0 212 -2 227 -18 10 -10 17 -29 17 -43 0
-53 2 -52 -289 -53 l-271 -1 0 437 0 436 56 81 c50 74 53 80 29 71 -31 -12
-44 -13 -29 -2 5 4 27 39 48 77 58 106 98 165 113 165 11 0 13 -89 13 -490 0
-513 2 -533 44 -544 12 -3 147 -6 300 -6 339 -2 329 -5 334 109 2 60 -1 77
-18 101 l-21 30 -182 0 c-100 0 -187 4 -194 8 -9 6 -13 178 -15 723 -3 793 2
741 -69 754 -52 10 -85 -20 -133 -121 -8 -17 -22 -36 -30 -44 -9 -7 -16 -19
-16 -26 0 -8 -4 -14 -10 -14 -5 0 -10 -5 -10 -10 0 -13 -66 -110 -71 -105 -7
6 -3 349 4 376 l7 26 172 -2 c149 -1 179 2 214 18 61 27 72 81 27 126 l-28 27
-260 -1 c-143 -1 -268 -5 -277 -9 -13 -6 -21 1 -37 33 -44 86 -166 131 -241
90z m134 -33 c54 -23 90 -78 90 -141 1 -60 -18 -95 -74 -132 -63 -43 -163 -23
-205 40 -30 47 -36 88 -20 138 31 92 120 132 209 95z m-310 -109 l38 -2 4
-332 c2 -285 1 -333 -12 -333 -8 0 -14 -4 -14 -10 0 -15 15 -12 33 8 14 15 17
52 17 263 1 135 5 250 9 257 5 9 14 5 32 -14 13 -15 43 -35 67 -45 46 -20 51
-29 26 -50 -30 -25 -35 -64 -35 -295 -1 -201 2 -236 16 -258 20 -30 73 -43
104 -27 43 24 48 52 47 297 -1 206 -3 233 -20 258 -10 16 -27 31 -37 33 -22 6
-20 28 2 29 34 1 67 19 107 57 l42 41 1 -229 c1 -127 0 -242 -1 -256 -2 -40
27 -102 45 -96 30 12 24 -13 -20 -78 -25 -37 -45 -70 -45 -72 0 -2 -22 -36
-48 -76 -27 -40 -51 -76 -53 -82 -10 -24 -52 -85 -57 -85 -4 0 -43 56 -87 125
-175 274 -188 296 -176 308 8 8 11 7 11 -3 0 -10 3 -11 11 -3 8 8 3 23 -20 57
-17 25 -36 48 -41 51 -6 4 -10 94 -10 231 l0 226 -209 -3 c-193 -3 -212 -2
-230 15 -27 25 -27 52 2 79 22 22 27 22 242 19 121 -1 237 -3 259 -5z m981 7
c38 -15 49 -88 16 -109 -6 -3 -106 -6 -221 -5 l-210 1 0 -227 0 -226 -37 -49
c-21 -27 -46 -59 -55 -71 -16 -22 -17 -5 -18 329 l0 353 243 3 c133 1 247 3
254 5 6 1 19 -1 28 -4z m133 -1754 l217 0 -1 -80 -2 -80 -301 -3 -301 -2 0
589 0 590 -33 -55 c-18 -30 -56 -90 -83 -134 -28 -44 -121 -192 -207 -328
l-156 -249 -27 44 c-35 57 -306 480 -404 633 -42 66 -103 163 -135 215 -32 52
-70 108 -84 124 -36 39 -97 66 -153 66 l-48 0 0 -666 0 -667 65 5 c78 7 123
33 157 93 23 40 23 41 26 489 l3 450 85 -130 86 -129 -4 -340 -3 -340 -26 -56
c-35 -73 -85 -128 -151 -164 -47 -26 -64 -30 -158 -32 -58 -2 -138 -4 -177 -6
l-73 -2 0 827 0 828 155 0 c130 0 165 -3 212 -20 100 -35 126 -63 287 -321 33
-52 83 -130 111 -174 29 -44 85 -132 125 -195 40 -63 86 -136 103 -163 l31
-47 16 27 c31 51 241 386 319 509 42 66 112 180 156 252 76 125 81 131 115
134 l35 3 3 -747 2 -748 218 0z m-824 1458 c13 -19 16 -61 16 -257 0 -258 -3
-271 -60 -271 -51 0 -53 10 -52 278 1 223 2 248 18 259 27 20 61 16 78 -9z
m-1226 -114 c21 -15 22 -20 22 -216 0 -173 -2 -204 -17 -220 -19 -21 -66 -24
-81 -5 -7 8 -12 90 -13 222 -1 190 0 210 17 222 24 17 45 16 72 -3z m473 -78
c35 -24 128 -156 149 -211 5 -14 14 -25 20 -25 6 0 8 -5 5 -10 -4 -6 -12 -4
-21 5 -9 8 -24 15 -33 15 -45 0 -46 -11 -48 -434 -1 -221 -5 -421 -9 -445 -4
-33 -15 -53 -40 -78 -19 -18 -38 -33 -42 -34 -4 0 -18 -2 -32 -5 -55 -9 -53
-36 -52 621 1 333 4 610 7 616 11 17 60 9 96 -15z m-450 -476 c76 -39 105
-123 67 -198 -34 -68 -78 -95 -150 -90 -88 6 -138 63 -138 154 0 61 28 106 83
133 53 26 87 26 138 1z m911 -289 l46 -68 -1 -426 -2 -426 -270 -3 -270 -2
-15 27 c-13 24 -13 30 0 54 l16 28 217 3 218 2 -3 440 c-2 289 0 440 7 440 6
-1 31 -31 57 -69z m120 -113 c18 -29 35 -57 37 -63 2 -5 9 -15 15 -21 6 -7 20
-24 30 -39 35 -47 51 -49 87 -11 17 20 37 45 43 58 23 43 41 72 53 86 7 7 17
21 22 30 5 9 12 14 15 12 5 -6 7 -146 7 -500 l-1 -224 -37 36 c-40 38 -101 74
-118 70 -5 -2 5 10 23 26 32 28 33 29 35 125 2 93 1 98 -25 123 -36 37 -83 37
-115 0 -20 -24 -23 -37 -23 -116 0 -85 1 -91 30 -124 l31 -34 -37 -12 c-20 -7
-54 -28 -74 -47 -21 -18 -41 -30 -44 -25 -9 14 -5 702 4 702 5 0 23 -24 42
-52z m172 -310 c11 -16 16 -46 16 -101 0 -96 -10 -117 -53 -117 -53 0 -58 8
-61 110 -2 80 0 96 16 112 25 25 63 23 82 -4z m45 -326 c68 -51 86 -120 49
-192 -25 -48 -89 -90 -137 -90 -36 0 -103 36 -126 67 -28 40 -32 129 -6 170
49 78 148 99 220 45z"/>
<path d="M2302 2322 c-34 -37 -33 -25 -25 -392 4 -231 6 -246 25 -267 18 -19
32 -23 79 -23 71 0 105 14 118 50 5 16 7 147 5 321 l-5 294 -25 23 c-20 18
-37 22 -86 22 -53 0 -63 -3 -86 -28z m168 -327 l0 -315 -80 0 -80 0 0 315 0
315 80 0 80 0 0 -315z"/>
<path d="M2610 2175 c-23 -24 -24 -32 -28 -214 -4 -180 -3 -191 18 -234 22
-44 24 -45 64 -41 29 3 48 12 64 30 22 25 23 31 22 235 l-1 209 -29 20 c-39
28 -81 26 -110 -5z m94 -8 c15 -11 17 -35 17 -221 0 -224 -3 -236 -52 -236
-53 0 -59 23 -59 237 0 180 1 194 20 213 23 23 49 26 74 7z"/>
<path d="M2619 1652 c-26 -10 -62 -35 -86 -61 l-41 -44 -62 6 c-61 6 -63 6
-96 -27 -37 -37 -42 -62 -19 -105 20 -40 64 -56 116 -43 50 13 63 9 113 -36
53 -47 96 -63 161 -59 47 3 60 8 90 37 65 63 88 143 60 213 -41 103 -141 154
-236 119z m127 -43 c55 -26 84 -72 84 -133 0 -59 -20 -99 -67 -131 -70 -47
-171 -25 -211 46 -16 28 -20 30 -67 26 -27 -3 -62 -8 -77 -12 -19 -5 -36 -2
-53 9 -33 22 -35 78 -3 100 25 18 64 21 73 6 3 -5 28 -10 54 -10 44 0 50 3 61
29 14 34 33 53 75 75 41 21 80 20 131 -5z"/>
<path d="M2344 1242 c-51 -27 -58 -98 -13 -136 29 -25 36 -26 127 -23 54 2
103 2 110 -1 7 -2 12 -23 12 -52 0 -58 17 -109 44 -131 18 -15 24 -15 64 -2
29 10 46 23 53 40 10 27 13 242 3 267 -16 41 -24 -7 -24 -134 0 -129 -2 -140
-20 -150 -25 -14 -68 -3 -80 20 -6 10 -10 55 -10 99 l0 81 -84 0 c-47 0 -96
-4 -110 -10 -49 -18 -105 25 -91 70 14 45 25 47 183 42 155 -5 226 1 220 20
-6 16 -352 17 -384 0z"/>
<path d="M240 1223 c-20 -26 -21 -36 -18 -231 3 -200 3 -204 27 -223 32 -26
82 -25 109 3 19 22 21 35 23 218 3 218 -3 244 -53 254 -52 10 -66 7 -88 -21z
m98 -9 c21 -15 22 -20 22 -211 0 -169 -2 -199 -17 -215 -19 -22 -66 -24 -83
-4 -17 21 -17 410 0 431 16 19 50 19 78 -1z"/>
</g>
</svg>
